<svg version="1.1" id="prefix__Layer_1" xmlns="http://www.w3.org/2000/svg" xmlns:xlink="http://www.w3.org/1999/xlink" x="0" y="0" viewBox="0 0 542.8 376.5" xml:space="preserve" enable-background="new 0 0 542.8 376.5"><style>.prefix__st0,.prefix__st2{fill:none;stroke:#a0147e;stroke-width:.5}.prefix__st2{fill:#ebd9e7}.prefix__st3{fill:#a0147e}.prefix__st4{font-family:&apos;Gilroy-Bold&apos;}.prefix__st5{font-size:12px}.prefix__st6{fill:#da521f}.prefix__st7{fill:#fff}.prefix__st8{font-size:14px}.prefix__st10{fill:#00babe}.prefix__st14,.prefix__st15{fill:none;stroke:#000;stroke-width:.25}.prefix__st15{stroke-linecap:round}.prefix__st16{fill:#f99d1c}.prefix__st17,.prefix__st21{fill:#fff;stroke:#a0147e;stroke-width:.511}.prefix__st21{stroke-width:.5}.prefix__st23,.prefix__st24{fill:none;stroke:#000;stroke-width:.2528}.prefix__st24{stroke-linecap:round}</style><path class="prefix__st0" d="M314.7 238.1 348.9 238.1"/><path class="prefix__st0" d="M280.4 258.8 314.6 258.8"/><path class="prefix__st0" d="M314.7 319.8 348.9 319.8"/><path fill="none" stroke="#a0147e" stroke-width=".5" d="M314.7 197.1 349 197.1"/><path class="prefix__st0" d="M348.9 156h-30.2a4 4 0 0 0-4 4v197a4 4 0 0 0 4 4h30.2"/><path class="prefix__st0" d="M314.7 279 348.9 279"/><path class="prefix__st0" d="M314.6 258.8 314.6 258.8"/><path class="prefix__st0" d="M179.6 56.1h-30.2a4 4 0 0 0-4 4v194.6a4 4 0 0 0 4 4h30.2"/><path class="prefix__st2" d="M172.8 44.7a4 4 0 0 0-4 4v15a4 4 0 0 0 4 4h114.5a4 4 0 0 0 4-4v-15a4 4 0 0 0-4-4H172.8z"/><text transform="translate(177.4 61)" class="prefix__st3 prefix__st4 prefix__st5">General Resources</text><text transform="translate(273.6 58.6)" class="prefix__st6 prefix__st4 prefix__st5"> </text><text transform="translate(260.7 229.1)" class="prefix__st6 prefix__st4 prefix__st5"> </text><path class="prefix__st0" d="M291.2 56.2 345.7 56.2"/><path class="prefix__st0" d="M348.9 15.1h-30.2a4 4 0 0 0-4 4v74a4 4 0 0 0 4 4h30.2"/><path class="prefix__st0" d="M120.9 157.3 145.4 157.3"/><path class="prefix__st3" d="M62.1 217.3A60 60 0 1 0 62 97.2a60 60 0 0 0 .1 120.1"/><text transform="translate(26.4 146)" class="prefix__st7 prefix__st4 prefix__st8">Multilingual </text><text transform="translate(38.5 162.9)" class="prefix__st7 prefix__st4 prefix__st8">Learner</text><text transform="translate(37.2 179.7)" class="prefix__st7 prefix__st4 prefix__st8">Support</text><path d="M342 3.7a4 4 0 0 0-4 4v15a4 4 0 0 0 4 4h117.9a4 4 0 0 0 4-4v-15a4 4 0 0 0-4-4H342z" fill="#fff" stroke="#a0147e" stroke-width=".5"/><text transform="translate(341.8 19.2)" class="prefix__st3 prefix__st4 prefix__st5">An</text><text transform="translate(356.7 19.2)" class="prefix__st3 prefix__st4 prefix__st5">c</text><text transform="translate(363.1 19.2)" class="prefix__st3 prefix__st4 prefix__st5">hor Cha</text><text transform="translate(407.6 19.2)" class="prefix__st3 prefix__st4 prefix__st5">r</text><text transform="translate(412 19.2)" class="prefix__st3 prefix__st4 prefix__st5">t</text><text transform="translate(416.4 19.2)" class="prefix__st3 prefix__st4 prefix__st5">s  </text><circle class="prefix__st10" cx="452.2" cy="15.1" r="6.5"/><defs><path id="prefix__SVGID_1_" d="M447.9 11.8H456.7V18.4H447.9z"/></defs><clipPath id="prefix__SVGID_2_"><use xlink:href="#prefix__SVGID_1_" overflow="visible"/></clipPath><path d="M447.9 12.3v6l1.6-.5h5.3l1.7.5v-6l-1.7-.3h-5.3l-1.6.3z" clip-path="url(#prefix__SVGID_2_)" fill="none" stroke="#000" stroke-width=".3"/><defs><path id="prefix__SVGID_3_" d="M447.9 11.8H456.7V18.4H447.9z"/></defs><clipPath id="prefix__SVGID_4_"><use xlink:href="#prefix__SVGID_3_" overflow="visible"/></clipPath><path clip-path="url(#prefix__SVGID_4_)" fill="none" stroke="#000" stroke-width=".3" d="M449.5 11.9 449.5 17.8"/><defs><path id="prefix__SVGID_5_" d="M447.9 11.8H456.7V18.4H447.9z"/></defs><clipPath id="prefix__SVGID_6_"><use xlink:href="#prefix__SVGID_5_" overflow="visible"/></clipPath><path clip-path="url(#prefix__SVGID_6_)" fill="none" stroke="#000" stroke-width=".3" d="M454.9 11.9 454.9 17.8"/><path class="prefix__st14" d="M452.6 13.9H454.2V17H452.6z"/><path d="M450.2 12.7H454.3V13.2H450.2z"/><path d="M448.5 12.6 448.5 14.9 449 14.7 449 12.5z"/><path class="prefix__st15" d="M450.3 13.9 452.1 13.9"/><path class="prefix__st15" d="M450.3 14.8 452.1 14.8"/><path class="prefix__st15" d="M450.3 15.6 451.1 15.6"/><path d="M455.4 15.6 455.4 17.4 456 17.6 456 15.7z"/><circle class="prefix__st16" cx="435" cy="15.1" r="6.5"/><path class="prefix__st14" d="M431.4 10.6s-.1 0 0 0l-.1 9 .1.1h7.2l.1-.1v-6.8l-2.2-2.2h-5.1z"/><path class="prefix__st14" d="M436.4 10.5v2c0 .2.1.3.3.3h2"/><path d="M434.2 15.1c0 .3-.2.5-.5.5h-.2v.5h-.3v-1.4h.5c.3 0 .5.2.5.4zm-.2 0-.2-.2h-.2v.4h.2c.1.1.2 0 .2-.2zM435.7 15.4c0 .4-.3.7-.7.7h-.6v-1.4h.6c.4 0 .7.3.7.7zm-.3 0c0-.3-.2-.4-.4-.4h-.3v.9h.3c.3-.1.4-.3.4-.5zM436.2 14.9v.3h.6v.3h-.6v.5h-.2v-1.4h.8v.3h-.6z"/><path class="prefix__st17" d="M342.2 85.7a4.1 4.1 0 0 0-4.2 4v15c0 2.2 1.9 4 4.2 4h115.6c2.3 0 4.2-1.8 4.2-4v-15c0-2.2-1.9-4-4.2-4H342.2z"/><text transform="translate(342.3 101)" class="prefix__st3 prefix__st4 prefix__st5">Notice &amp; Note</text><circle class="prefix__st10" cx="450" cy="97.1" r="6.5"/><defs><path id="prefix__SVGID_7_" d="M445.6 93.8H454.4V100.4H445.6z"/></defs><clipPath id="prefix__SVGID_8_"><use xlink:href="#prefix__SVGID_7_" overflow="visible"/></clipPath><path d="M445.7 94.3v6l1.6-.5h5.3l1.7.5v-6l-1.7-.3h-5.3l-1.6.3z" clip-path="url(#prefix__SVGID_8_)" fill="none" stroke="#000" stroke-width=".3"/><defs><path id="prefix__SVGID_9_" d="M445.6 93.8H454.4V100.4H445.6z"/></defs><clipPath id="prefix__SVGID_10_"><use xlink:href="#prefix__SVGID_9_" overflow="visible"/></clipPath><path clip-path="url(#prefix__SVGID_10_)" fill="none" stroke="#000" stroke-width=".3" d="M447.3 93.9 447.3 99.8"/><defs><path id="prefix__SVGID_11_" d="M445.6 93.8H454.4V100.4H445.6z"/></defs><clipPath id="prefix__SVGID_12_"><use xlink:href="#prefix__SVGID_11_" overflow="visible"/></clipPath><path clip-path="url(#prefix__SVGID_12_)" fill="none" stroke="#000" stroke-width=".3" d="M452.7 93.9 452.7 99.8"/><path class="prefix__st14" d="M450.4 95.9H452V99H450.4z"/><path d="M448 94.7H452.1V95.2H448z"/><path d="M446.3 94.6 446.3 96.9 446.8 96.7 446.8 94.5z"/><path class="prefix__st15" d="M448.1 95.9 449.9 95.9"/><path class="prefix__st15" d="M448.1 96.8 449.9 96.8"/><path class="prefix__st15" d="M448.1 97.6 448.9 97.6"/><path d="M453.2 97.6 453.2 99.4 453.8 99.6 453.8 97.7z"/><circle class="prefix__st16" cx="432.8" cy="97.1" r="6.5"/><path class="prefix__st14" d="M429.2 92.6c-.1 0-.1 0 0 0l-.1 9 .1.1h7.2l.1-.1v-6.8l-2.2-2.2h-5.1z"/><path class="prefix__st14" d="M434.1 92.5v2c0 .2.1.3.3.3h2"/><path d="M432 97.1c0 .3-.2.5-.5.5h-.2v.5h-.3v-1.4h.5c.3 0 .5.2.5.4zm-.3 0-.2-.2h-.2v.4h.2c.2.1.2 0 .2-.2zM433.5 97.4c0 .4-.3.7-.7.7h-.6v-1.4h.6c.4 0 .7.3.7.7zm-.3 0c0-.3-.2-.4-.4-.4h-.3v.9h.3c.3-.1.4-.3.4-.5zM434 96.9v.3h.6v.3h-.6v.5h-.3v-1.4h.8v.3h-.5z"/><path class="prefix__st2" d="M172.8 240.1a4 4 0 0 0-4 4v28.8a4 4 0 0 0 4 4h114.5a4 4 0 0 0 4-4v-28.8a4 4 0 0 0-4-4H172.8z"/><text transform="translate(192.9 256)" class="prefix__st3 prefix__st4 prefix__st5">Text-Specific</text><text transform="translate(201.5 268)" class="prefix__st3 prefix__st4 prefix__st5">Resources</text><path class="prefix__st21" d="M342 185.6a4 4 0 0 0-4 4v15a4 4 0 0 0 4 4h151.7a4 4 0 0 0 4-4v-15a4 4 0 0 0-4-4H342z"/><text transform="translate(342.3 201.2)" class="prefix__st3 prefix__st4 prefix__st5">Multilingual Summaries</text><text transform="translate(473.3 201.2)" class="prefix__st3 prefix__st4 prefix__st5">  </text><circle class="prefix__st16" cx="486.1" cy="197" r="6.5"/><path class="prefix__st14" d="M482.5 192.5s-.1 0 0 0l-.1 9 .1.1h7.2l.1-.1v-6.8l-2.2-2.2h-5.1z"/><path class="prefix__st14" d="M487.5 192.4v2c0 .2.1.3.3.3h2"/><path d="M485.3 197c0 .3-.2.5-.5.5h-.2v.5h-.3v-1.4h.5c.3 0 .5.2.5.4zm-.2 0-.2-.2h-.2v.4h.2c.1.1.2 0 .2-.2zM486.8 197.3c0 .4-.3.7-.7.7h-.6v-1.4h.6c.4 0 .7.3.7.7zm-.2 0c0-.3-.2-.4-.4-.4h-.3v.9h.3c.2-.1.4-.3.4-.5zM487.4 196.8v.3h.6v.3h-.6v.5h-.3v-1.4h.8v.3h-.5z"/><path class="prefix__st21" d="M342 226.6a4 4 0 0 0-4 4v15a4 4 0 0 0 4 4h156.7a4 4 0 0 0 4-4v-15a4 4 0 0 0-4-4H342z"/><circle class="prefix__st16" cx="491.1" cy="238" r="6.5"/><path class="prefix__st14" d="M487.5 233.5s-.1 0 0 0l-.1 9 .1.1h7.2l.1-.1v-6.8l-2.2-2.2h-5.1z"/><path class="prefix__st14" d="M492.5 233.4v2c0 .2.1.3.3.3h2"/><path d="M490.3 238c0 .3-.2.5-.5.5h-.2v.5h-.3v-1.4h.5c.3 0 .5.2.5.4zm-.3 0-.2-.2h-.2v.4h.2c.2.1.2 0 .2-.2zM491.8 238.3c0 .4-.3.7-.7.7h-.6v-1.4h.6c.4 0 .7.3.7.7zm-.3 0c0-.3-.2-.4-.4-.4h-.3v.9h.3c.3-.1.4-.3.4-.5zM492.3 237.8v.3h.6v.3h-.6v.5h-.3v-1.4h.8v.3h-.5z"/><text transform="translate(342.3 242.2)" class="prefix__st3 prefix__st4 prefix__st5">Spanish Authentic Texts</text><text transform="translate(478.4 242.2)" class="prefix__st3 prefix__st4 prefix__st5">  </text><path class="prefix__st21" d="M342 349.6a4 4 0 0 0-4 4v15a4 4 0 0 0 4 4h86.1a4 4 0 0 0 4-4v-15a4 4 0 0 0-4-4H342z"/><text transform="translate(342.3 365.2)" class="prefix__st3 prefix__st4 prefix__st5">Text Sketch  </text><circle class="prefix__st16" cx="420.6" cy="361" r="6.5"/><path class="prefix__st14" d="M417 356.5c-.1 0-.1 0 0 0l-.1 9 .1.1h7.2l.1-.1v-6.8l-2.2-2.2H417z"/><path class="prefix__st14" d="M421.9 356.4v2c0 .2.1.3.3.3h2"/><path d="M419.8 361c0 .3-.2.5-.5.5h-.2v.5h-.3v-1.4h.5c.3 0 .5.2.5.4zm-.3 0-.2-.2h-.2v.4h.2c.1.1.2 0 .2-.2zM421.3 361.3c0 .4-.3.7-.7.7h-.6v-1.4h.6c.4 0 .7.3.7.7zm-.3 0c0-.3-.2-.4-.4-.4h-.3v.9h.3c.3-.1.4-.3.4-.5zM421.8 360.8v.3h.6v.3h-.6v.5h-.3v-1.4h.8v.3h-.5z"/><path class="prefix__st21" d="M342 308.6a4 4 0 0 0-4 4v15a4 4 0 0 0 4 4h193a4 4 0 0 0 4-4v-15a4 4 0 0 0-4-4H342z"/><text transform="translate(342.3 324.2)" class="prefix__st3 prefix__st4 prefix__st5">Summaries and Adapted Texts</text><circle class="prefix__st16" cx="527.4" cy="320" r="6.5"/><path class="prefix__st14" d="m523.8 315.5-.1 9 .1.1h7.2l.1-.1v-6.8l-2.2-2.2h-5.1z"/><path class="prefix__st14" d="M528.8 315.4v2c0 .2.1.3.3.3h2"/><path d="M526.7 320c0 .3-.2.5-.5.5h-.2v.5h-.3v-1.4h.5c.3 0 .5.2.5.4zm-.3 0-.2-.2h-.2v.4h.2c.1.1.2 0 .2-.2zM528.1 320.3c0 .4-.3.7-.7.7h-.6v-1.4h.6c.5 0 .7.3.7.7zm-.2 0c0-.3-.2-.4-.4-.4h-.3v.9h.3c.2-.1.4-.3.4-.5zM528.7 319.8v.3h.6v.3h-.6v.5h-.3v-1.4h.8v.3h-.5z"/><path class="prefix__st21" d="M342 267.6a4 4 0 0 0-4 4v15a4 4 0 0 0 4 4h142.4a4 4 0 0 0 4-4v-15a4 4 0 0 0-4-4H342z"/><text transform="translate(342.3 283.2)" class="prefix__st3 prefix__st4 prefix__st5">Spanish Unit Openers</text><circle class="prefix__st16" cx="476.8" cy="279" r="6.5"/><path class="prefix__st14" d="M473.2 274.5s-.1 0 0 0l-.1 9 .1.1h7.2l.1-.1v-6.8l-2.2-2.2h-5.1z"/><path class="prefix__st14" d="M478.2 274.4v2c0 .2.1.3.3.3h2"/><path d="M476 279c0 .3-.2.5-.5.5h-.2v.5h-.3v-1.4h.5c.3 0 .5.2.5.4zm-.2 0-.2-.2h-.2v.4h.2c.1.1.2 0 .2-.2zM477.5 279.3c0 .4-.3.7-.7.7h-.6v-1.4h.6c.4 0 .7.3.7.7zm-.2 0c0-.3-.2-.4-.4-.4h-.3v.9h.3c.2-.1.4-.3.4-.5zM478.1 278.8v.3h.6v.3h-.6v.5h-.3v-1.4h.8v.3h-.5z"/><path class="prefix__st17" d="M342.2 144.6a4.1 4.1 0 0 0-4.2 4v15c0 2.2 1.9 4 4.2 4H490c2.3 0 4.2-1.8 4.2-4v-15c0-2.2-1.9-4-4.2-4H342.2z"/><circle class="prefix__st16" cx="482.5" cy="156" r="6.5"/><path class="prefix__st14" d="m478.9 151.5-.1 9 .1.1h7.2l.1-.1v-6.8l-2.2-2.2h-5.1z"/><path class="prefix__st14" d="M483.9 151.4v2c0 .2.1.3.3.3h2"/><path d="M481.8 156c0 .3-.2.5-.5.5h-.3v.5h-.3v-1.4h.5c.4 0 .6.2.6.4zm-.3 0-.2-.2h-.3v.4h.2c.2.1.3 0 .3-.2zM483.3 156.3c0 .4-.3.7-.7.7h-.6v-1.4h.6c.4 0 .7.3.7.7zm-.3 0c0-.3-.2-.4-.4-.4h-.3v.9h.3c.2-.1.4-.3.4-.5zM483.8 155.8v.3h.6v.3h-.6v.5h-.3v-1.4h.8v.3h-.5z"/><text transform="translate(342.3 160.2)" class="prefix__st3 prefix__st4 prefix__st5">Multilingual Glossaries</text><text transform="translate(469.7 160.2)" class="prefix__st3 prefix__st4 prefix__st5">  </text><path class="prefix__st17" d="M342.2 44.7a4.1 4.1 0 0 0-4.2 4v15c0 2.2 1.9 4 4.2 4h178.4c2.3 0 4.2-1.8 4.2-4v-15c0-2.2-1.9-4-4.2-4H342.2z"/><text transform="translate(342.3 60)" class="prefix__st3 prefix__st4 prefix__st5">HMH Fresh Lit Preview</text><circle cx="495.6" cy="56.1" r="6.5" fill="#f37167"/><path class="prefix__st23" d="M499.2 60.6v-9.1H493c-.6 0-1.1.5-1.1 1.1v6.9c0 .6.5 1.1 1.1 1.1H499.2z"/><path class="prefix__st23" d="M499.2 58.8H493c-.4 0-.8.2-1 .6"/><path class="prefix__st24" d="M493.2 52.7 493.2 58.7"/><path class="prefix__st24" d="M499.2 59.7 493.1 59.7"/><circle class="prefix__st16" cx="478.4" cy="56.1" r="6.5"/><path class="prefix__st14" d="M474.8 51.6c-.1 0-.1 0 0 0l-.1 9 .1.1h7.2l.1-.1v-6.8l-2.2-2.2h-5.1z"/><path class="prefix__st14" d="M479.7 51.5v2c0 .2.1.3.3.3h2"/><path d="M477.6 56.1c0 .3-.2.5-.5.5h-.2v.5h-.3v-1.4h.5c.3 0 .5.2.5.4zm-.3 0-.2-.2h-.2v.4h.2c.1.1.2 0 .2-.2zM479.1 56.4c0 .4-.3.7-.7.7h-.6v-1.4h.6c.4 0 .7.3.7.7zm-.3 0c0-.3-.2-.4-.4-.4h-.3v.9h.3c.2-.1.4-.3.4-.5zM479.6 55.9v.3h.6v.3h-.6v.5h-.3v-1.4h.8v.3h-.5z"/><circle class="prefix__st10" cx="512.8" cy="56.1" r="6.5"/><defs><path id="prefix__SVGID_13_" d="M508.4 52.8H517.2V59.4H508.4z"/></defs><clipPath id="prefix__SVGID_14_"><use xlink:href="#prefix__SVGID_13_" overflow="visible"/></clipPath><path d="M508.5 53.3v6l1.6-.5h5.3l1.7.5v-6l-1.7-.3h-5.3l-1.6.3z" clip-path="url(#prefix__SVGID_14_)" fill="none" stroke="#000" stroke-width=".3"/><defs><path id="prefix__SVGID_15_" d="M508.4 52.8H517.2V59.4H508.4z"/></defs><clipPath id="prefix__SVGID_16_"><use xlink:href="#prefix__SVGID_15_" overflow="visible"/></clipPath><path clip-path="url(#prefix__SVGID_16_)" fill="none" stroke="#000" stroke-width=".3" d="M510.1 52.9 510.1 58.8"/><defs><path id="prefix__SVGID_17_" d="M508.4 52.8H517.2V59.4H508.4z"/></defs><clipPath id="prefix__SVGID_18_"><use xlink:href="#prefix__SVGID_17_" overflow="visible"/></clipPath><path clip-path="url(#prefix__SVGID_18_)" fill="none" stroke="#000" stroke-width=".3" d="M515.5 52.9 515.5 58.8"/><path class="prefix__st14" d="M513.2 54.9H514.8V58H513.2z"/><path d="M510.8 53.7H514.9V54.2H510.8z"/><path d="M509.1 53.6 509.1 55.9 509.6 55.7 509.6 53.5z"/><path class="prefix__st15" d="M510.9 54.9 512.7 54.9"/><path class="prefix__st15" d="M510.9 55.8 512.7 55.8"/><path class="prefix__st15" d="M510.9 56.6 511.7 56.6"/><path d="M516 56.6 516 58.4 516.6 58.6 516.6 56.7z"/></svg>