<svg xmlns="http://www.w3.org/2000/svg" viewBox="0 0 241.74 95.29" style="enable-background:new 0 0 241.74 95.29" xml:space="preserve">
  <switch>
    <g>
      <path d="M1.86 41.11h2.56v5.17h5.13v-5.17h2.56V53.9H9.56v-5.61H4.43v5.61H1.86V41.11zm30.45 0h2.56v5.17H40v-5.17h2.56V53.9H40v-5.61h-5.13v5.61h-2.56V41.11zm-17.26 0h4.1l3.04 9.69h.04l3.04-9.69h4.1V53.9h-2.46V43.34h-.04l-3.44 10.55h-2.46l-3.44-10.55-.04.04V53.9h-2.45V41.11zM8.15 23.97.45 37.23h15.3l-7.6-13.26zM2.33 36.16l5.81-9.99 5.72 9.99H2.33zm34.72-12.02c-3.7 0-6.71 3.01-6.71 6.71s3.01 6.71 6.71 6.71 6.71-3.01 6.71-6.71-3.01-6.71-6.71-6.71zm0 12.28c-3.07 0-5.57-2.5-5.57-5.58 0-3.07 2.5-5.57 5.57-5.57 3.07 0 5.57 2.5 5.57 5.57a5.567 5.567 0 0 1-5.57 5.58zM17.18 25.86c-.02.01-.05.01-.07.01-.54.09-.99.32-1.34.67-1.55 1.55-.51 5.03 2.38 7.91 1.33 1.33 2.85 2.33 4.27 2.8.61.2 1.18.3 1.69.3.8 0 1.47-.24 1.95-.72.35-.35.58-.8.67-1.35l1.93-11.46-11.48 1.84zm8.46 9.43c-.06.32-.18.58-.37.76-.47.48-1.39.53-2.51.16-1.27-.42-2.63-1.32-3.85-2.54-2.57-2.57-3.32-5.42-2.38-6.36.19-.19.44-.31.81-.38.12-.02.25-.03.38-.03 1.44 0 3.45 1.07 5.16 2.79 1.88 1.87 3.01 4.17 2.76 5.6zm.5-2.9c-.54-1.16-1.39-2.36-2.49-3.46-1.09-1.09-2.28-1.94-3.44-2.47l7.11-1.14-1.18 7.07z"/>
      <path style="fill:none;stroke:#000;stroke-width:.792;stroke-miterlimit:10" d="M59.6 11.55v57.41"/>
      <path d="M136.97 79.1v1.88a43.12 43.12 0 0 0 6.84-1.89c7.4-2.81 13.87-7.88 18.24-14.31-6.31 7.73-15.34 12.89-25.08 14.32zM125.09 79.07c-12.08-1.89-22.83-9.56-28.54-20.58l-.57-1.28c-2.07-4.16-3.02-8.85-3.53-13.45-.02-1.64-.2-3.97.03-5.58.02-1.64.5-3.89.76-5.53C99.47 5.5 130.9-6.39 153.89 9.18 131.98-8.38 99.24 2.43 91.06 29.07c-7.76 25.76 10.28 49.7 34.03 52.37v-2.37z"/>
      <g>
        <path d="M116.03 31.78v6.44h10.56v5.12h-10.56v10.48h-5.36V26.66h16.23v5.12h-10.87zM141.02 34.03v5.59c-2.6-.31-5.9.85-5.9 4.93v9.28h-5.01V34.42h5.01v3.34c1.01-2.64 3.46-3.73 5.9-3.73zM152.44 49.83c1.94 0 3.49-.82 4.35-1.94l4.04 2.33c-1.82 2.64-4.74 4.15-8.46 4.15-6.52 0-10.64-4.46-10.64-10.25s4.15-10.25 10.25-10.25c5.75 0 9.82 4.54 9.82 10.25 0 .74-.08 1.4-.19 2.06h-14.63c.68 2.57 2.82 3.65 5.46 3.65zm4.34-7.53c-.62-2.79-2.72-3.92-4.81-3.92-2.68 0-4.5 1.44-5.08 3.92h9.89zM178.68 48.16c0 4.19-3.65 6.21-7.8 6.21-3.88 0-6.75-1.63-8.15-4.62l4.35-2.44c.54 1.59 1.86 2.52 3.8 2.52 1.59 0 2.68-.54 2.68-1.67 0-2.83-10.01-1.28-10.01-8.11 0-3.96 3.38-6.17 7.38-6.17 3.14 0 5.86 1.44 7.38 4.11l-4.27 2.33c-.58-1.24-1.67-1.98-3.11-1.98-1.24 0-2.25.54-2.25 1.59-.02 2.88 10 1.09 10 8.23zM199.56 41.91v11.92h-5.01v-11.3c0-2.64-1.59-4-3.84-4-2.45 0-4.27 1.44-4.27 4.81v10.48h-5.01V26.66h5.01v9.94c1.16-1.75 3.18-2.72 5.78-2.72 4.12 0 7.34 2.87 7.34 8.03zM220.11 51.27v2.56h-15.14V26.66h2.72v24.61h12.42zM222.55 28.44c0-1.01.81-1.86 1.86-1.86s1.86.85 1.86 1.86c0 1.01-.82 1.86-1.86 1.86-1.04.01-1.86-.85-1.86-1.86zm.58 5.98h2.56v19.41h-2.56V34.42zM235.36 36.91v11.76c0 3.34 1.82 3.07 5.59 2.91v2.25c-5.24.78-8.15-.5-8.15-5.16V36.91h-4.08v-2.48h4.08v-4.66l2.56-.78v5.43h5.59v2.48h-5.59z"/>
      </g>
      <path d="M145.97 60.16c-.22-.53-5.61 2.65-9.43 4.99a82.37 82.37 0 0 1-5.74 3.2c-3.73 1.9-11.41 7.22-11.28 18.87 0 0 .14.08.39.2 4.42-1.46 8.35-4.19 11.72-7.45 1.5-1.46 4.44-5.09 4.68-5.4.03-.04.05.06.07.02-.06.31-2.77 4.34-4.61 6.29-4.39 4.65-11.35 9.43-20.84 10.51-.13.01-.24.01-.36.02l.33 3.1c.01 0 .02 0 .03-.01a50.14 50.14 0 0 0 12.82-5.45c8.2 2.83 25.19 4.85 22.22-28.89z"/>
      <path d="M122.72 83.52c-.21-.04-.41-.07-.61-.11-3.93-.75-7.18-2.09-10.51-3.84-8.69-4.55-16.7-10.95-22.5-18.84-.06-.1.09-.08.06-.16 7.99 9.52 19.06 16.37 31 19.82-3.8-18.77-12.67-26.11-20.44-28.42-13.96-4.15-24.79-12.92-25.23-12.7-3.79 51.2 29.08 47.19 41.4 43.95 1.93.65 3.97 1.21 6.12 1.66.24.05.48.09.72.14v-1.5z"/>
    </g>
  </switch>
</svg>
